<?xml version="1.0" standalone="no"?><!DOCTYPE svg PUBLIC "-//W3C//DTD SVG 1.1//EN" "http://www.w3.org/Graphics/SVG/1.1/DTD/svg11.dtd"><svg t="1649153158628" class="icon" viewBox="0 0 1024 1024" version="1.1" xmlns="http://www.w3.org/2000/svg" p-id="1272" xmlns:xlink="http://www.w3.org/1999/xlink" width="200" height="200"><defs><style type="text/css">@font-face { font-family: feedback-iconfont; src: url("//at.alicdn.com/t/font_1031158_u69w8yhxdu.woff2?t=1630033759944") format("woff2"), url("//at.alicdn.com/t/font_1031158_u69w8yhxdu.woff?t=1630033759944") format("woff"), url("//at.alicdn.com/t/font_1031158_u69w8yhxdu.ttf?t=1630033759944") format("truetype"); }
</style></defs><path d="M800 416l0-128c0-159.072-128.928-288-288-288s-288 128.928-288 288l0 128c-53.024 0-96 42.976-96 96l0 224c0 159.072 128.928 288 288 288l192 0c159.072 0 288-128.928 288-288l0-224c0-53.056-43.008-96-96-96zM288 288c0-123.712 100.288-224 224-224s224 100.288 224 224l0 128-64 0 0-127.936c0-88.384-71.616-160-160-160s-160 71.616-160 160l0 127.936-64 0 0-128zM640 288l0 128-256 0 0-128c0-70.688 57.312-128 128-128s128 57.312 128 128zM832 608l0 128c0 123.488-100.512 224-224 224l-192 0c-123.488 0-224-100.512-224-224l0-224c0-17.664 14.336-32 32-32 21.344 0 42.656 0 64 0l448 0c21.312 0 42.624 0 64 0 17.632 0 32 14.336 32 32l0 96zM512 608c35.328 0 64 28.64 64 64 0 19.488-10.496 56.576-21.312 85.824-8.736 23.616-17.664 42.112-42.688 42.112-23.008 0-33.952-18.688-42.656-42.432-10.688-29.184-21.344-66.08-21.344-85.504 0-35.36 28.672-64 64-64z" p-id="1273" fill="#ffffff"></path></svg>